PathFileType  4	(X/Y/Z) C:\Users\wagnerel85475\Documents\Thesis\opencap-core\Data\3375ffbc-daeb-4a43-b4f7-ac9899cd4c71\MarkerData\PreAugmentation
DataRate	CameraRate	NumFrames	NumMarkers	Units	OrigDataRate	OrigDataStartFrame	OrigNumFrames
60.0	60.0	9	20	m	60.0	225	897
Frame#	Time	Neck			RShoulder			RElbow			RWrist			LShoulder			LElbow			LWrist			midHip			RHip			RKnee			RAnkle			LHip			LKnee			LAnkle			LBigToe			LSmallToe			LHeel			RBigToe			RSmallToe			RHeel			
		X1	Y1	Z1	X2	Y2	Z2	X3	Y3	Z3	X4	Y4	Z4	X5	Y5	Z5	X6	Y6	Z6	X7	Y7	Z7	X8	Y8	Z8	X9	Y9	Z9	X10	Y10	Z10	X11	Y11	Z11	X12	Y12	Z12	X13	Y13	Z13	X14	Y14	Z14	X15	Y15	Z15	X16	Y16	Z16	X17	Y17	Z17	X18	Y18	Z18	X19	Y19	Z19	X20	Y20	Z20	

225	3.7333333	0.6768600	1.3757500	-0.1099700	0.6733800	1.3752100	0.0665800	1.0421300	1.2366200	0.1532100	1.2804200	1.2989500	-0.0107100	0.7221200	1.3749100	-0.2816900	1.0389400	1.2350500	-0.3044700	1.3228400	1.2683100	-0.1563400	0.5628500	0.8128100	-0.0923400	0.5476900	0.8133500	0.0216800	0.6588000	0.3488500	0.0575600	0.5620000	-0.1831500	0.0848900	0.5735700	0.8154000	-0.2172000	0.6713400	0.3494000	-0.2535600	0.6086700	-0.1601000	-0.2821000	0.8171000	-0.2071100	-0.3535300	0.7494600	-0.2131500	-0.3850800	0.5527300	-0.2225400	-0.2643700	0.7862600	-0.2027400	0.1659300	0.7282900	-0.2157500	0.1982100	0.5617700	-0.2093300	0.0671100
226	3.7500000	0.6650400	1.3801800	-0.1133100	0.6659700	1.3829800	0.0708900	0.9708900	1.2144200	0.1702300	1.2478500	1.2959600	-0.0076000	0.7109700	1.3843800	-0.2856800	1.0231000	1.2509200	-0.3062700	1.2964500	1.2697000	-0.1687800	0.5716200	0.8141600	-0.0875000	0.5573900	0.8149000	0.0255100	0.6507300	0.3432300	0.0530900	0.5626300	-0.1827500	0.0848300	0.5724800	0.8124200	-0.2168200	0.6624000	0.3472200	-0.2498100	0.6009300	-0.1594300	-0.2853100	0.8084700	-0.2105000	-0.3495000	0.7493400	-0.2103000	-0.3855900	0.5523100	-0.2227400	-0.2642500	0.7875900	-0.2023100	0.1655700	0.7289300	-0.2154500	0.1981500	0.5633900	-0.2134800	0.0661700
227	3.7666667	0.6662900	1.3873000	-0.1137300	0.6743800	1.3907300	0.0740300	1.0090700	1.2621700	0.1046900	1.2876800	1.2990200	-0.0147100	0.7032500	1.3906000	-0.2820200	1.0230200	1.2490100	-0.2970600	1.3147600	1.2732100	-0.1598500	0.5810200	0.8152700	-0.0923800	0.5569300	0.8150800	0.0256600	0.6398400	0.3476200	0.0499900	0.5620400	-0.1833500	0.0848100	0.5745800	0.8089100	-0.2168400	0.6624200	0.3472500	-0.2494700	0.6005200	-0.1590100	-0.2853200	0.7994300	-0.2138000	-0.3461600	0.7487400	-0.2170500	-0.3855000	0.5526200	-0.2228700	-0.2644000	0.7956300	-0.2028200	0.1682900	0.7206800	-0.2185700	0.2026600	0.5633800	-0.2138000	0.0662000
228	3.7833333	0.6642600	1.3879100	-0.1131700	0.6754800	1.3945000	0.0740400	1.0004700	1.2599100	0.1143900	1.2915400	1.3007100	-0.0020900	0.6921600	1.3927300	-0.2779100	1.0150100	1.2564600	-0.2948300	1.3171300	1.2858800	-0.1581900	0.5810800	0.8151100	-0.0917600	0.5667700	0.8156500	0.0209100	0.6283900	0.3458600	0.0471300	0.5627700	-0.1827700	0.0847500	0.5825000	0.8135500	-0.2132300	0.6622300	0.3469400	-0.2495500	0.6008700	-0.1592400	-0.2853300	0.7994700	-0.2140000	-0.3457800	0.7500500	-0.2139200	-0.3848500	0.5534700	-0.2194500	-0.2637800	0.7894000	-0.2084700	0.1728200	0.7213800	-0.2183300	0.2026000	0.5634300	-0.2134500	0.0661000
229	3.8000000	0.6571700	1.3953900	-0.1096600	0.6745100	1.3983400	0.0739200	0.9871400	1.2561100	0.1174600	1.2724200	1.2981200	0.0113100	0.6843000	1.3989700	-0.2741400	1.0069000	1.2552200	-0.2897400	1.3010900	1.2985400	-0.1526000	0.5911600	0.8163700	-0.0888200	0.5860100	0.8147300	0.0285400	0.6350700	0.3436200	0.0435800	0.5621700	-0.1832100	0.0846900	0.5932000	0.8142600	-0.2171000	0.6536600	0.3451200	-0.2452100	0.6004800	-0.1590000	-0.2852200	0.7903400	-0.2206100	-0.3430200	0.7393600	-0.2242400	-0.3824400	0.5537400	-0.2195500	-0.2638000	0.7959800	-0.2060300	0.1690000	0.7381500	-0.2123500	0.2011200	0.5631000	-0.2131100	0.0661800
230	3.8166667	0.6638300	1.3993700	-0.1134100	0.6735200	1.4033400	0.0662200	0.9840400	1.2573000	0.1154800	1.2857000	1.3006700	0.0020300	0.6918500	1.4002200	-0.2780100	0.9915600	1.2558300	-0.2914000	1.2760000	1.3015400	-0.1579700	0.6006000	0.8172400	-0.0923000	0.6080500	0.8198600	0.0269600	0.6352400	0.3407300	0.0434100	0.5627700	-0.1825700	0.0847100	0.5924700	0.8144800	-0.2170300	0.6612400	0.3506300	-0.2411700	0.6007900	-0.1593900	-0.2852500	0.7905600	-0.2206800	-0.3426600	0.7400000	-0.2244400	-0.3823600	0.5533600	-0.2198900	-0.2637400	0.7971900	-0.2023400	0.1678900	0.7388400	-0.2119900	0.2009800	0.5629600	-0.2127900	0.0661800
231	3.8333333	0.6563100	1.3955500	-0.1173200	0.6643000	1.4030700	0.0705100	0.9783200	1.2575900	0.1143500	1.2701600	1.3023700	0.0038700	0.6757300	1.3949600	-0.2781200	0.9908000	1.2582100	-0.2900400	1.2589400	1.3019100	-0.1665400	0.6110900	0.8217400	-0.0897700	0.6262600	0.8219600	0.0261100	0.6343200	0.3401500	0.0438600	0.5622200	-0.1831100	0.0846900	0.6037400	0.8188400	-0.2134600	0.6522900	0.3458200	-0.2365900	0.6004900	-0.1589300	-0.2852400	0.7903000	-0.2206800	-0.3430200	0.7394300	-0.2242100	-0.3824500	0.5536900	-0.2195200	-0.2638300	0.7960200	-0.2061400	0.1690000	0.7383500	-0.2124800	0.2011100	0.5630500	-0.2128500	0.0662000
232	3.8500000	0.6545300	1.3925600	-0.1170000	0.6649500	1.4001900	0.0704500	0.9835200	1.2585500	0.1155600	1.2787800	1.3006900	0.0058800	0.6827700	1.3961700	-0.2819800	0.9911200	1.2591600	-0.2912600	1.2546100	1.3019300	-0.1614000	0.6108600	0.8259300	-0.0887100	0.6365500	0.8275000	0.0295300	0.6350200	0.3299500	0.0437300	0.5629500	-0.1824700	0.0847000	0.6120900	0.8237400	-0.2091800	0.6519900	0.3483400	-0.2370400	0.6006900	-0.1593300	-0.2853000	0.7992700	-0.2175100	-0.3462900	0.7491400	-0.2210700	-0.3860300	0.5438700	-0.2229000	-0.2676200	0.7974700	-0.2058700	0.1685400	0.7392200	-0.2122600	0.2010500	0.5718200	-0.2095000	0.0616900
233	3.8666667	0.6474000	1.3925700	-0.1134100	0.6538800	1.3996300	0.0671600	0.9696000	1.2524400	0.1196500	1.2622100	1.3055700	0.0006100	0.6752900	1.3915100	-0.2783300	0.9988100	1.2581900	-0.2859000	1.2516900	1.3051600	-0.1631400	0.6107700	0.8263200	-0.0895300	0.6434800	0.8330200	0.0255600	0.6247700	0.3346700	0.0410600	0.5623200	-0.1832700	0.0846400	0.6037600	0.8228000	-0.2132800	0.6335400	0.3444700	-0.2286900	0.6090200	-0.1560500	-0.2815200	0.8074400	-0.2179000	-0.3434800	0.7486600	-0.2241500	-0.3866600	0.5443300	-0.2228900	-0.2676800	0.8056900	-0.2098800	0.1719500	0.7388500	-0.2126700	0.2012600	0.5716000	-0.2097800	0.0617200
